<?xml version="1.0" encoding="iso-8859-1"?>
<!-- Generator: Adobe Illustrator 19.0.0, SVG Export Plug-In . SVG Version: 6.00 Build 0)  -->
<svg version="1.1" id="Capa_1" xmlns="http://www.w3.org/2000/svg" xmlns:xlink="http://www.w3.org/1999/xlink" x="0px" y="0px"
	 viewBox="0 0 512 512" style="enable-background:new 0 0 512 512;" xml:space="preserve">
<g>
	<path style="fill:#ED3124;" d="M315.957,366.58c5.128,9.823,5.437,19.636,0.937,29.448c-1.884,4.108-7.053,5.498-10.822,2.996
		l-36.069-23.878l37.047-12.16C310.5,361.854,314.279,363.367,315.957,366.58z"/>
	<path style="fill:#ED3124;" d="M264.649,375.147l-36.069,23.878c-3.769,2.502-8.937,1.112-10.822-2.996
		c-4.5-9.813-4.191-19.625,0.937-29.448c1.678-3.213,5.457-4.726,8.907-3.594L264.649,375.147z"/>
</g>
<g>
	<path style="fill:#B2B6B7;" d="M248.785,512c-3.606,0-6.831-2.538-7.565-6.209c-4.368-21.837-1.68-44.04,7.773-64.206l4.969-10.6
		c7.547-16.103,10.033-33.893,7.186-51.449l-13.801-85.104c-0.683-4.209,2.177-8.176,6.387-8.859
		c4.215-0.68,8.176,2.177,8.859,6.387l13.801,85.104c3.345,20.635,0.424,41.549-8.447,60.476l-4.969,10.6
		c-8.042,17.155-10.327,36.043-6.612,54.621c0.837,4.182-1.876,8.251-6.059,9.087C249.796,511.951,249.287,512,248.785,512z"/>
	<path style="fill:#B2B6B7;" d="M378.496,468.5c-3.606,0-6.831-2.538-7.565-6.209c-3.658-18.291-1.313-37.666,6.604-54.558
		l4.163-8.88c6.215-13.259,8.26-27.908,5.916-42.361l-11.56-71.287c-0.683-4.21,2.177-8.176,6.387-8.859
		c4.214-0.679,8.177,2.177,8.859,6.387l11.56,71.285c2.844,17.534,0.362,35.304-7.178,51.389l-4.163,8.88
		c-6.527,13.923-8.46,29.895-5.444,44.974c0.837,4.183-1.876,8.251-6.059,9.087C379.508,468.45,378.998,468.5,378.496,468.5z"/>
	<path style="fill:#B2B6B7;" d="M121.08,468.5c-3.606,0-6.831-2.538-7.565-6.209c-3.658-18.291-1.313-37.666,6.604-54.558
		l4.163-8.88c6.215-13.259,8.26-27.908,5.916-42.361l-11.56-71.287c-0.683-4.21,2.177-8.176,6.387-8.859
		c4.212-0.679,8.177,2.177,8.859,6.387l11.56,71.285c2.844,17.534,0.362,35.304-7.178,51.389l-4.163,8.88
		c-6.527,13.923-8.46,29.895-5.444,44.974c0.837,4.183-1.876,8.251-6.059,9.087C122.093,468.45,121.583,468.5,121.08,468.5z"/>
</g>
<path style="fill:#34D6D2;" d="M475.102,154.192c0,55.633-31.508,102.009-73.322,112.552c-1.524,0.381-2.574,1.761-2.574,3.316
	v4.561c0,8.762-7.259,15.826-16.094,15.517c-8.412-0.299-14.961-7.465-14.961-15.888v-4.191c0-1.555-1.05-2.935-2.574-3.316
	c-41.815-10.544-73.322-56.92-73.322-112.552c0-63.407,40.929-114.807,91.424-114.807S475.102,90.785,475.102,154.192z"/>
<path style="fill:#20C6AA;" d="M361.756,154.192c0-47.956,23.417-89.038,56.673-106.214c-10.715-5.534-22.448-8.594-34.751-8.594
	c-50.495,0-91.424,51.401-91.424,114.807c0,55.633,31.508,102.009,73.322,112.552c1.524,0.381,2.574,1.761,2.574,3.316v4.191
	c0,8.423,6.549,15.589,14.961,15.888c8.834,0.309,16.094-6.755,16.094-15.517v-4.561c0-1.555,1.05-2.935,2.574-3.316
	c5.767-1.455,11.329-3.613,16.65-6.361C385.181,243.208,361.756,202.15,361.756,154.192z"/>
<path style="fill:#E8B62A;" d="M217.686,154.192c0,55.633-31.508,102.009-73.322,112.552c-1.524,0.381-2.574,1.761-2.574,3.316
	v4.561c0,8.762-7.259,15.826-16.094,15.517c-8.412-0.299-14.961-7.465-14.961-15.888v-4.191c0-1.555-1.05-2.935-2.574-3.316
	c-41.815-10.544-73.322-56.92-73.322-112.552c0-63.407,40.929-114.807,91.424-114.807S217.686,90.785,217.686,154.192z"/>
<path style="fill:#FF7400;" d="M364.114,137.068c0,66.413-37.614,121.778-87.542,134.371c-1.802,0.453-3.068,2.09-3.068,3.954v5.447
	c0,10.461-8.67,18.894-19.213,18.524c-10.039-0.36-17.854-8.917-17.854-18.966v-5.004c0-1.864-1.266-3.501-3.068-3.954
	c-49.928-12.593-87.542-67.958-87.542-134.371C145.826,61.368,194.694,0,254.97,0S364.114,61.368,364.114,137.068z"/>
<path style="fill:#EAA428;" d="M104.341,154.192c0-47.956,23.417-89.038,56.673-106.214c-10.715-5.534-22.448-8.594-34.751-8.594
	c-50.495,0-91.424,51.401-91.424,114.807c0,55.633,31.508,102.009,73.322,112.552c1.524,0.381,2.574,1.761,2.574,3.316v4.191
	c0,8.423,6.549,15.589,14.961,15.888c8.835,0.309,16.094-6.755,16.094-15.517v-4.561c0-1.555,1.05-2.935,2.574-3.316
	c5.767-1.455,11.329-3.613,16.65-6.361C127.766,243.208,104.341,202.15,104.341,154.192z"/>
<path style="fill:#FF5500;" d="M215.328,137.068c0-60.442,31.153-111.743,74.393-129.97C278.806,2.497,267.12,0,254.97,0
	c-60.276,0-109.144,61.368-109.144,137.068c0,66.413,37.614,121.778,87.542,134.371c1.802,0.453,3.068,2.09,3.068,3.954v5.004
	c0,10.049,7.815,18.606,17.854,18.966c10.544,0.371,19.213-8.062,19.213-18.524v-5.447c0-1.864,1.266-3.501,3.068-3.954
	c4.489-1.133,8.877-2.616,13.149-4.417C246.485,248.795,215.328,197.51,215.328,137.068z"/>
<g>
	<path style="fill:#E8B62A;" d="M505.446,293.227c2.832,1.544,2.832,5.601,0,7.146l-9.792,5.365
		c-0.69,0.371-1.246,0.927-1.617,1.617l-5.365,9.792c-1.544,2.832-5.601,2.832-7.146,0l-5.365-9.792
		c-0.371-0.69-0.927-1.246-1.617-1.617l-9.792-5.365c-2.832-1.544-2.832-5.601,0-7.146l9.792-5.365
		c0.69-0.371,1.246-0.927,1.617-1.617l5.365-9.792c1.544-2.832,5.601-2.832,7.146,0l5.365,9.792c0.371,0.69,0.927,1.246,1.617,1.617
		L505.446,293.227z"/>
	<path style="fill:#E8B62A;" d="M439.547,161.43c2.832,1.544,2.832,5.601,0,7.146l-9.792,5.365c-0.69,0.371-1.246,0.927-1.617,1.617
		l-5.365,9.792c-1.544,2.832-5.601,2.832-7.146,0l-5.365-9.792c-0.371-0.69-0.927-1.246-1.617-1.617l-9.792-5.365
		c-2.832-1.544-2.832-5.601,0-7.146l9.792-5.365c0.69-0.371,1.246-0.927,1.617-1.617l5.365-9.792c1.544-2.832,5.601-2.832,7.146,0
		l5.365,9.792c0.371,0.69,0.927,1.246,1.617,1.617L439.547,161.43z"/>
	<path style="fill:#E8B62A;" d="M47.247,27.574c2.832,1.544,2.832,5.601,0,7.146l-9.792,5.365c-0.69,0.371-1.246,0.927-1.617,1.617
		l-5.365,9.792c-1.544,2.832-5.601,2.832-7.146,0l-5.365-9.792c-0.371-0.69-0.927-1.246-1.617-1.617L6.554,34.72
		c-2.832-1.544-2.832-5.601,0-7.146l9.792-5.365c0.69-0.371,1.246-0.927,1.617-1.617l5.365-9.792c1.544-2.832,5.601-2.832,7.146,0
		l5.365,9.792c0.371,0.69,0.927,1.246,1.617,1.617L47.247,27.574z"/>
</g>
<g>
	<path style="fill:#2CD4E5;" d="M37.712,354.461c-4.266,0-7.722-3.457-7.722-7.722v-7.722c0-4.266,3.457-7.722,7.722-7.722
		s7.722,3.457,7.722,7.722v7.722C45.434,351.004,41.978,354.461,37.712,354.461z"/>
	<path style="fill:#2CD4E5;" d="M58.82,367.846h-7.722c-4.266,0-7.722-3.457-7.722-7.722s3.457-7.722,7.722-7.722h7.722
		c4.266,0,7.722,3.457,7.722,7.722S63.086,367.846,58.82,367.846z"/>
	<path style="fill:#2CD4E5;" d="M37.712,388.954c-4.266,0-7.722-3.457-7.722-7.722v-7.722c0-4.266,3.457-7.722,7.722-7.722
		s7.722,3.457,7.722,7.722v7.722C45.434,385.498,41.978,388.954,37.712,388.954z"/>
	<path style="fill:#2CD4E5;" d="M24.326,367.846h-7.722c-4.266,0-7.722-3.457-7.722-7.722s3.457-7.722,7.722-7.722h7.722
		c4.266,0,7.722,3.457,7.722,7.722S28.592,367.846,24.326,367.846z"/>
	<path style="fill:#2CD4E5;" d="M316.75,450.219c-4.266,0-7.722-3.457-7.722-7.722v-7.722c0-4.266,3.457-7.722,7.722-7.722
		s7.722,3.457,7.722,7.722v7.722C324.472,446.763,321.016,450.219,316.75,450.219z"/>
	<path style="fill:#2CD4E5;" d="M337.858,463.605h-7.722c-4.266,0-7.722-3.457-7.722-7.722c0-4.266,3.457-7.722,7.722-7.722h7.722
		c4.266,0,7.722,3.457,7.722,7.722C345.581,460.148,342.124,463.605,337.858,463.605z"/>
	<path style="fill:#2CD4E5;" d="M316.75,484.713c-4.266,0-7.722-3.457-7.722-7.722v-7.722c0-4.266,3.457-7.722,7.722-7.722
		s7.722,3.457,7.722,7.722v7.722C324.472,481.256,321.016,484.713,316.75,484.713z"/>
	<path style="fill:#2CD4E5;" d="M303.364,463.605h-7.722c-4.266,0-7.722-3.457-7.722-7.722c0-4.266,3.457-7.722,7.722-7.722h7.722
		c4.266,0,7.722,3.457,7.722,7.722C311.087,460.148,307.63,463.605,303.364,463.605z"/>
</g>
<g>
</g>
<g>
</g>
<g>
</g>
<g>
</g>
<g>
</g>
<g>
</g>
<g>
</g>
<g>
</g>
<g>
</g>
<g>
</g>
<g>
</g>
<g>
</g>
<g>
</g>
<g>
</g>
<g>
</g>
</svg>
